<mxfile host="app.diagrams.net" modified="2023-05-16T08:45:38.937Z" agent="Mozilla/5.0 (Windows NT 10.0; Win64; x64) AppleWebKit/537.36 (KHTML, like Gecko) Chrome/113.0.0.0 Safari/537.36 Edg/113.0.1774.42" etag="vmzBfxiTFH74iaCw-hez" version="21.2.9" type="github">
  <diagram name="Page-1" id="c6cc6MjmSXQQoVPUkG1n">
    <mxGraphModel dx="1434" dy="788" grid="1" gridSize="10" guides="1" tooltips="1" connect="1" arrows="1" fold="1" page="1" pageScale="1" pageWidth="827" pageHeight="1169" math="0" shadow="0">
      <root>
        <mxCell id="0" />
        <mxCell id="1" parent="0" />
        <mxCell id="TLlBwcQ2Lvt7QxHGO88_-1" value="" style="whiteSpace=wrap;html=1;aspect=fixed;" vertex="1" parent="1">
          <mxGeometry x="230" y="70" width="470" height="470" as="geometry" />
        </mxCell>
        <mxCell id="TLlBwcQ2Lvt7QxHGO88_-2" value="Post It" style="text;html=1;strokeColor=none;fillColor=none;align=center;verticalAlign=middle;whiteSpace=wrap;rounded=0;" vertex="1" parent="1">
          <mxGeometry x="430" y="90" width="60" height="30" as="geometry" />
        </mxCell>
        <mxCell id="TLlBwcQ2Lvt7QxHGO88_-3" value="" style="rounded=0;whiteSpace=wrap;html=1;" vertex="1" parent="1">
          <mxGeometry x="260" y="150" width="120" height="60" as="geometry" />
        </mxCell>
        <mxCell id="TLlBwcQ2Lvt7QxHGO88_-4" value="" style="rounded=0;whiteSpace=wrap;html=1;" vertex="1" parent="1">
          <mxGeometry x="414" y="150" width="120" height="60" as="geometry" />
        </mxCell>
        <mxCell id="TLlBwcQ2Lvt7QxHGO88_-5" value="" style="rounded=0;whiteSpace=wrap;html=1;" vertex="1" parent="1">
          <mxGeometry x="560" y="150" width="120" height="60" as="geometry" />
        </mxCell>
        <mxCell id="TLlBwcQ2Lvt7QxHGO88_-6" value="&amp;nbsp;We need to babysit my sister dog tomorrow" style="rounded=0;whiteSpace=wrap;html=1;" vertex="1" parent="1">
          <mxGeometry x="260" y="240" width="120" height="60" as="geometry" />
        </mxCell>
        <mxCell id="TLlBwcQ2Lvt7QxHGO88_-9" value="Finish the Post It app" style="rounded=0;whiteSpace=wrap;html=1;" vertex="1" parent="1">
          <mxGeometry x="414" y="240" width="120" height="60" as="geometry" />
        </mxCell>
        <mxCell id="TLlBwcQ2Lvt7QxHGO88_-10" value="Don&#39;t forget to pick up the kids" style="text;html=1;strokeColor=none;fillColor=none;align=center;verticalAlign=middle;whiteSpace=wrap;rounded=0;" vertex="1" parent="1">
          <mxGeometry x="265" y="160" width="110" height="40" as="geometry" />
        </mxCell>
        <mxCell id="TLlBwcQ2Lvt7QxHGO88_-11" value="Buy Milk !!!" style="text;html=1;strokeColor=none;fillColor=none;align=center;verticalAlign=middle;whiteSpace=wrap;rounded=0;" vertex="1" parent="1">
          <mxGeometry x="419" y="160" width="110" height="40" as="geometry" />
        </mxCell>
        <mxCell id="TLlBwcQ2Lvt7QxHGO88_-12" value="Schedule a dentist appointment this month" style="text;html=1;strokeColor=none;fillColor=none;align=center;verticalAlign=middle;whiteSpace=wrap;rounded=0;" vertex="1" parent="1">
          <mxGeometry x="565" y="160" width="110" height="40" as="geometry" />
        </mxCell>
        <mxCell id="TLlBwcQ2Lvt7QxHGO88_-13" value="" style="shape=image;html=1;verticalAlign=top;verticalLabelPosition=bottom;labelBackgroundColor=#ffffff;imageAspect=0;aspect=fixed;image=https://cdn3.iconfinder.com/data/icons/flat-actions-icons-9/792/Close_Icon-128.png" vertex="1" parent="1">
          <mxGeometry x="362" y="150" width="18" height="18" as="geometry" />
        </mxCell>
        <mxCell id="TLlBwcQ2Lvt7QxHGO88_-14" value="" style="shape=image;html=1;verticalAlign=top;verticalLabelPosition=bottom;labelBackgroundColor=#ffffff;imageAspect=0;aspect=fixed;image=https://cdn3.iconfinder.com/data/icons/flat-actions-icons-9/792/Close_Icon-128.png" vertex="1" parent="1">
          <mxGeometry x="516" y="150" width="18" height="18" as="geometry" />
        </mxCell>
        <mxCell id="TLlBwcQ2Lvt7QxHGO88_-15" value="" style="shape=image;html=1;verticalAlign=top;verticalLabelPosition=bottom;labelBackgroundColor=#ffffff;imageAspect=0;aspect=fixed;image=https://cdn3.iconfinder.com/data/icons/flat-actions-icons-9/792/Close_Icon-128.png" vertex="1" parent="1">
          <mxGeometry x="662" y="150" width="18" height="18" as="geometry" />
        </mxCell>
        <mxCell id="TLlBwcQ2Lvt7QxHGO88_-16" value="" style="shape=image;html=1;verticalAlign=top;verticalLabelPosition=bottom;labelBackgroundColor=#ffffff;imageAspect=0;aspect=fixed;image=https://cdn3.iconfinder.com/data/icons/flat-actions-icons-9/792/Close_Icon-128.png" vertex="1" parent="1">
          <mxGeometry x="362" y="240" width="18" height="18" as="geometry" />
        </mxCell>
        <mxCell id="TLlBwcQ2Lvt7QxHGO88_-17" value="" style="shape=image;html=1;verticalAlign=top;verticalLabelPosition=bottom;labelBackgroundColor=#ffffff;imageAspect=0;aspect=fixed;image=https://cdn3.iconfinder.com/data/icons/flat-actions-icons-9/792/Close_Icon-128.png" vertex="1" parent="1">
          <mxGeometry x="516" y="240" width="18" height="18" as="geometry" />
        </mxCell>
        <mxCell id="TLlBwcQ2Lvt7QxHGO88_-18" value="new post it:" style="text;html=1;strokeColor=none;fillColor=none;align=center;verticalAlign=middle;whiteSpace=wrap;rounded=0;" vertex="1" parent="1">
          <mxGeometry x="240" y="490" width="90" height="30" as="geometry" />
        </mxCell>
        <mxCell id="TLlBwcQ2Lvt7QxHGO88_-20" value="" style="rounded=0;whiteSpace=wrap;html=1;" vertex="1" parent="1">
          <mxGeometry x="330" y="470" width="120" height="60" as="geometry" />
        </mxCell>
        <mxCell id="TLlBwcQ2Lvt7QxHGO88_-21" value="" style="verticalLabelPosition=bottom;verticalAlign=top;html=1;shape=mxgraph.basic.tick" vertex="1" parent="1">
          <mxGeometry x="464" y="487.5" width="20" height="25" as="geometry" />
        </mxCell>
      </root>
    </mxGraphModel>
  </diagram>
</mxfile>
